<svg width="20" height="18" viewBox="0 0 20 18" fill="teal" xmlns="http://www.w3.org/2000/svg">
<path d="M8.3618 16.8354L8.94721 15.6646C9.15731 15.2444 8.85176 14.75 8.38197 14.75C8.30908 14.75 8.25 14.6909 8.25 14.618V4.80902C8.25 4.71432 8.3035 4.62776 8.3882 4.58541L10.3882 3.58541C10.5544 3.5023 10.75 3.62317 10.75 3.80902V16.5C10.75 16.9142 11.0858 17.25 11.5 17.25H12.691C12.9751 17.25 13.2348 17.0895 13.3618 16.8354L13.9472 15.6646C14.1573 15.2444 13.8518 14.75 13.382 14.75C13.3091 14.75 13.25 14.6909 13.25 14.618V5.26759C13.25 5.184 13.2918 5.10595 13.3613 5.05958L15.3613 3.72625C15.5275 3.61549 15.75 3.73458 15.75 3.93426V16.5C15.75 16.9142 16.0858 17.25 16.5 17.25H17.691C17.9751 17.25 18.2348 17.0895 18.3618 16.8354L18.9472 15.6646C19.1573 15.2444 18.8518 14.75 18.382 14.75C18.3091 14.75 18.25 14.6909 18.25 14.618V1.8831C18.25 1.30012 17.614 0.940039 17.1141 1.23998L13.6286 3.33128C13.462 3.43126 13.25 3.31123 13.25 3.1169V1.80902C13.25 1.25148 12.6633 0.888859 12.1646 1.1382L8.6118 2.91459C8.44558 2.9977 8.25 2.87683 8.25 2.69098V1.80902C8.25 1.25148 7.66327 0.888859 7.16459 1.1382L2.65883 3.39108C2.14375 3.64861 2.09906 4.3665 2.57821 4.68594L3.14248 5.06212C3.34798 5.19911 3.60774 5.22616 3.83705 5.13444L5.40715 4.5064C5.57137 4.44071 5.75 4.56165 5.75 4.73852V12.691C5.75 12.7857 5.6965 12.8722 5.6118 12.9146L3.38496 14.028C3.2522 14.0944 3.09119 14.0312 3.03907 13.8922L2.28787 11.889C1.96548 11.0293 0.67707 11.3907 0.84887 12.2927L1.63076 16.3976C1.72382 16.8862 2.25804 17.1505 2.70292 16.928L5.3882 15.5854C5.55442 15.5023 5.75 15.6232 5.75 15.809V16V16.5C5.75 16.9142 6.08579 17.25 6.5 17.25H7.69098C7.97506 17.25 8.23476 17.0895 8.3618 16.8354Z" stroke="#f7fed4" stroke-width="1"/>
</svg>
